<?xml version="1.0" standalone="no"?>
<!DOCTYPE svg PUBLIC "-//W3C//DTD SVG 20010904//EN"
 "http://www.w3.org/TR/2001/REC-SVG-20010904/DTD/svg10.dtd">
<svg version="1.0" xmlns="http://www.w3.org/2000/svg"
 width="39.562747pt" height="45.979259pt" viewBox="0 0 39.562747 45.979259"
 preserveAspectRatio="xMidYMid meet">
<metadata>
Created by potrace 1.12, written by Peter Selinger 2001-2015
</metadata>
<g transform="translate(-4.247166,53.000000) scale(0.100000,-0.100000)"
fill="#000000" stroke="none">
<path d="M275 498 c-22 -26 -26 -39 -22 -70 3 -21 16 -53 30 -71 13 -18 32
-47 41 -65 l17 -34 50 78 c56 89 60 119 23 163 -21 26 -33 31 -69 31 -36 0
-48 -5 -70 -32z m123 0 c39 -42 37 -67 -10 -141 l-44 -67 -37 55 c-44 66 -53
96 -36 127 28 52 90 65 127 26z"/>
<path d="M316 474 c-22 -22 -20 -61 4 -74 51 -27 95 36 50 72 -27 22 -34 22
-54 2z m52 -16 c16 -16 15 -23 -4 -42 -12 -12 -20 -13 -35 -6 -19 10 -26 40
-12 53 10 11 38 8 51 -5z"/>
<path d="M165 425 c-122 -43 -162 -195 -78 -296 70 -82 220 -77 282 10 29 40
47 122 33 147 -9 16 -11 10 -12 -31 0 -48 -26 -115 -46 -122 -10 -3 -44 52
-44 72 0 8 -6 18 -13 22 -25 15 -27 42 -4 58 16 11 18 15 5 15 -37 0 -48 -70
-12 -84 8 -3 14 -13 14 -23 0 -10 7 -27 15 -37 22 -29 18 -44 -15 -61 -29 -15
-100 -21 -100 -9 0 4 11 17 25 30 14 13 25 31 25 42 0 22 -45 67 -82 81 -36
14 -35 24 2 38 16 6 33 20 36 30 3 10 9 25 13 33 5 8 7 30 6 48 -1 17 2 32 7
32 4 0 8 5 8 10 0 13 -17 12 -65 -5z m35 -39 c0 -19 -5 -38 -11 -41 -6 -4 -8
-13 -5 -20 6 -18 -13 -33 -52 -41 -31 -6 -31 -7 -14 -30 9 -13 22 -24 29 -24
17 0 83 -59 83 -74 0 -13 -57 -66 -71 -66 -5 0 -10 8 -11 18 0 9 -2 22 -2 29
-1 7 -7 18 -14 25 -6 6 -12 20 -12 31 0 10 -11 35 -25 55 -42 62 -29 107 45
151 49 29 60 27 60 -13z m-99 -176 c6 -14 15 -33 20 -42 5 -10 9 -28 9 -40 -1
-22 -2 -21 -30 9 -28 31 -50 88 -50 128 0 18 2 18 20 -5 10 -14 24 -36 31 -50z"/>
</g>
</svg>
