<?xml version="1.0" standalone="no"?>
<!DOCTYPE svg PUBLIC "-//W3C//DTD SVG 20010904//EN"
 "http://www.w3.org/TR/2001/REC-SVG-20010904/DTD/svg10.dtd">
<svg version="1.0" xmlns="http://www.w3.org/2000/svg"
 width="43.185621pt" height="43.920865pt" viewBox="0 0 43.185621 43.920865"
 preserveAspectRatio="xMidYMid meet">
<metadata>
Created by potrace 1.12, written by Peter Selinger 2001-2015
</metadata>
<g transform="translate(-1.646533,46.000000) scale(0.100000,-0.100000)"
fill="#000000" stroke="none">
<path d="M21 442 c-6 -12 -6 -23 1 -33 8 -11 9 -11 5 3 -11 34 15 39 214 36
l194 -3 3 -33 3 -33 -210 3 -211 3 1 -30 c1 -24 3 -25 6 -7 4 22 5 22 209 22
l204 0 0 -134 c0 -120 -2 -135 -17 -139 -14 -3 -13 -4 2 -3 19 1 20 9 23 170
2 116 -1 173 -9 182 -9 11 -53 14 -210 14 -181 0 -199 -2 -208 -18z"/>
<path d="M73 323 c9 -2 25 -2 35 0 9 3 1 5 -18 5 -19 0 -27 -2 -17 -5z"/>
<path d="M152 308 c3 -22 7 -23 131 -26 l127 -3 0 26 0 25 -131 0 c-130 0
-130 0 -127 -22z m248 -3 c0 -12 -20 -15 -120 -15 -100 0 -120 3 -120 15 0 13
20 15 120 15 100 0 120 -2 120 -15z"/>
<path d="M25 205 l0 -110 113 -1 112 0 -110 3 -109 4 -4 107 -3 107 1 -110z"/>
<path d="M73 243 c9 -2 25 -2 35 0 9 3 1 5 -18 5 -19 0 -27 -2 -17 -5z"/>
<path d="M152 198 l3 -53 55 -1 55 -1 -50 6 -50 6 -3 43 -3 42 120 0 120 0 4
-42 4 -43 1 48 2 47 -131 0 -130 0 3 -52z"/>
<path d="M280 128 l0 -81 21 19 c16 13 23 15 26 7 3 -7 13 -23 23 -35 17 -21
20 -22 36 -6 15 15 15 18 0 39 -21 31 -20 38 6 48 20 7 16 12 -40 49 -33 23
-63 42 -66 42 -4 0 -6 -37 -6 -82z m100 1 c0 -4 -7 -10 -16 -13 -13 -5 -13
-10 7 -37 16 -23 19 -33 10 -42 -9 -9 -14 -8 -21 3 -27 47 -37 55 -54 41 -14
-12 -16 -7 -16 53 l0 66 45 -32 c25 -18 45 -35 45 -39z"/>
</g>
</svg>
