<?xml version="1.0" standalone="no"?>
<!DOCTYPE svg PUBLIC "-//W3C//DTD SVG 20010904//EN"
 "http://www.w3.org/TR/2001/REC-SVG-20010904/DTD/svg10.dtd">
<svg version="1.0" xmlns="http://www.w3.org/2000/svg"
 width="47.526628pt" height="43.500000pt" viewBox="0 0 47.526628 43.500000"
 preserveAspectRatio="xMidYMid meet">
<metadata>
Created by potrace 1.12, written by Peter Selinger 2001-2015
</metadata>
<g transform="translate(-8.355138,47.000000) scale(0.100000,-0.100000)"
fill="#000000" stroke="none">
<path d="M182 458 c-15 -15 -15 -51 0 -66 28 -28 78 -7 78 33 0 27 -18 45 -45
45 -12 0 -26 -5 -33 -12z m62 -20 c8 -14 7 -21 -6 -34 -30 -30 -75 9 -48 42
16 18 39 15 54 -8z"/>
<path d="M442 458 c-28 -28 -7 -78 33 -78 12 0 26 5 33 12 28 28 7 78 -33 78
-12 0 -26 -5 -33 -12z m62 -20 c8 -14 7 -21 -6 -34 -30 -30 -75 9 -48 42 16
18 39 15 54 -8z"/>
<path d="M142 348 c-7 -7 -12 -29 -12 -49 0 -31 -4 -38 -22 -41 -22 -3 -23 -7
-24 -113 l0 -110 5 105 6 105 140 5 c77 3 123 7 103 8 -37 2 -38 3 -38 40 0
52 -14 62 -85 62 -34 0 -66 -5 -73 -12z m136 -10 c7 -7 12 -27 12 -45 l0 -33
-75 0 -75 0 0 35 c0 22 6 38 18 44 24 14 105 14 120 -1z"/>
<path d="M402 348 c-18 -18 -15 -128 4 -149 9 -10 18 -40 21 -66 8 -87 11 -93
43 -93 36 0 50 27 50 95 0 32 6 50 21 63 17 16 20 29 17 82 -4 77 -23 97 -61
62 l-24 -22 -18 20 c-21 23 -36 25 -53 8z m98 -23 c33 35 50 18 50 -51 0 -43
-4 -55 -20 -64 -15 -8 -20 -22 -21 -53 -2 -72 -12 -102 -35 -105 -24 -3 -34
27 -34 99 0 27 -6 45 -20 56 -15 13 -20 30 -20 68 0 68 15 83 50 50 l26 -25
24 25z"/>
<path d="M156 208 c-17 -27 -14 -131 5 -154 8 -10 35 -14 94 -14 103 0 115 10
115 97 0 69 -17 93 -68 93 -24 0 -32 -4 -32 -18 0 -10 -7 -19 -15 -19 -8 0
-15 9 -15 19 0 28 -65 25 -84 -4z m72 -21 c3 -22 6 -26 17 -17 9 8 15 8 20 0
12 -20 25 -10 25 20 0 30 11 37 44 24 23 -9 23 -149 0 -158 -28 -11 -150 -6
-162 6 -16 16 -16 130 0 146 22 22 53 10 56 -21z"/>
</g>
</svg>
