<?xml version="1.0" standalone="no"?>
<!DOCTYPE svg PUBLIC "-//W3C//DTD SVG 20010904//EN"
 "http://www.w3.org/TR/2001/REC-SVG-20010904/DTD/svg10.dtd">
<svg version="1.0" xmlns="http://www.w3.org/2000/svg"
 width="43.678108pt" height="44.500000pt" viewBox="0 0 43.678108 44.500000"
 preserveAspectRatio="xMidYMid meet">
<metadata>
Created by potrace 1.12, written by Peter Selinger 2001-2015
</metadata>
<g transform="translate(-2.159447,47.000000) scale(0.100000,-0.100000)"
fill="#000000" stroke="none">
<path d="M24 457 c-2 -7 -3 -107 -2 -222 l3 -210 150 0 150 0 3 174 2 175 -47
48 -47 48 -103 0 c-75 0 -105 -4 -109 -13z m247 -34 l42 -38 -29 -6 -29 -7 33
-1 32 -1 0 -170 0 -170 -145 0 -145 0 0 215 0 215 100 0 100 0 41 -37z"/>
<path d="M80 376 c0 -2 14 -6 30 -8 17 -3 30 -1 30 4 0 4 -13 8 -30 8 -16 0
-30 -2 -30 -4z"/>
<path d="M118 313 c28 -2 76 -2 105 0 28 2 5 3 -53 3 -58 0 -81 -1 -52 -3z"/>
<path d="M128 273 c29 -2 74 -2 100 0 26 2 2 3 -53 3 -55 0 -76 -1 -47 -3z"/>
<path d="M108 233 c18 -2 45 -2 60 0 15 2 0 4 -33 4 -33 0 -45 -2 -27 -4z"/>
<path d="M122 144 c-12 -8 -22 -20 -22 -25 0 -6 7 -3 16 5 20 20 34 20 34 0 0
-8 4 -13 9 -10 10 6 3 46 -8 46 -4 0 -17 -7 -29 -16z"/>
<path d="M180 130 c0 -5 10 -15 23 -21 22 -12 22 -12 3 10 -21 23 -26 26 -26
11z"/>
<path d="M392 368 c-7 -7 -12 -40 -12 -80 l0 -68 30 0 30 0 0 -66 c0 -49 -3
-63 -12 -58 -10 6 -10 5 -1 -7 8 -10 9 -20 2 -29 -16 -25 -28 8 -31 80 l-2 65
-3 -59 c-4 -56 10 -116 27 -116 17 0 29 63 36 188 5 99 3 136 -6 147 -15 18
-42 19 -58 3z m56 -70 l3 -68 -31 0 -30 0 0 63 c0 70 4 79 35 75 17 -3 20 -11
23 -70z"/>
<path d="M410 312 c0 -29 4 -52 9 -52 8 0 3 90 -5 99 -2 2 -4 -19 -4 -47z"/>
</g>
</svg>
