<?xml version="1.0" standalone="no"?>
<!DOCTYPE svg PUBLIC "-//W3C//DTD SVG 20010904//EN"
 "http://www.w3.org/TR/2001/REC-SVG-20010904/DTD/svg10.dtd">
<svg version="1.0" xmlns="http://www.w3.org/2000/svg"
 width="48.925415pt" height="43.134853pt" viewBox="0 0 48.925415 43.134853"
 preserveAspectRatio="xMidYMid meet">
<metadata>
Created by potrace 1.12, written by Peter Selinger 2001-2015
</metadata>
<g transform="translate(-4.077034,49.147903) scale(0.100000,-0.100000)"
fill="#000000" stroke="none">
<path d="M186 468 c-24 -35 -22 -142 4 -168 28 -28 168 -29 193 -2 26 28 24
153 -2 176 -25 23 -77 18 -75 -6 1 -11 -5 -18 -17 -18 -12 0 -19 7 -19 20 0
30 -63 28 -84 -2z m74 -23 c4 -21 8 -26 14 -17 6 11 12 10 27 -4 18 -17 19
-16 19 19 0 30 4 37 19 37 36 0 51 -27 51 -94 0 -42 -5 -67 -14 -75 -9 -8 -45
-11 -98 -9 l-83 3 -3 73 c-3 80 7 105 42 100 14 -2 23 -12 26 -33z"/>
<path d="M54 235 c-21 -32 -16 -151 7 -166 21 -13 183 -11 197 3 16 16 16 160
0 176 -7 7 -29 12 -50 12 -31 0 -38 -4 -36 -16 2 -10 -5 -18 -14 -19 -12 -2
-18 3 -18 16 0 31 -65 26 -86 -6z m74 -18 c3 -23 6 -26 18 -16 11 9 17 9 29
-1 13 -11 15 -8 15 19 0 26 4 31 25 31 32 0 45 -26 45 -92 0 -82 -9 -89 -110
-86 l-85 3 -3 74 c-4 92 0 103 35 99 22 -2 29 -9 31 -31z"/>
<path d="M320 250 c-11 -7 -15 -29 -15 -90 0 -61 4 -83 15 -90 22 -14 184 -12
198 2 16 16 16 160 0 176 -7 7 -29 12 -50 12 -31 0 -38 -4 -36 -16 2 -10 -5
-18 -14 -19 -12 -2 -18 3 -18 16 0 15 -7 19 -32 19 -18 0 -40 -5 -48 -10z m68
-33 c3 -23 6 -26 18 -16 11 9 17 9 29 -1 13 -11 15 -8 15 19 0 26 4 31 25 31
32 0 45 -26 45 -92 0 -82 -9 -89 -110 -86 l-85 3 -3 74 c-4 92 0 103 35 99 22
-2 29 -9 31 -31z"/>
</g>
</svg>
