<?xml version="1.0" standalone="no"?>
<!DOCTYPE svg PUBLIC "-//W3C//DTD SVG 20010904//EN"
 "http://www.w3.org/TR/2001/REC-SVG-20010904/DTD/svg10.dtd">
<svg version="1.0" xmlns="http://www.w3.org/2000/svg"
 width="43.525977pt" height="45.188050pt" viewBox="0 0 43.525977 45.188050"
 preserveAspectRatio="xMidYMid meet">
<metadata>
Created by potrace 1.12, written by Peter Selinger 2001-2015
</metadata>
<g transform="translate(-1.974023,48.159640) scale(0.100000,-0.100000)"
fill="#000000" stroke="none">
<path d="M36 464 c-13 -13 -16 -46 -16 -205 0 -247 -16 -229 210 -229 160 0
170 1 180 20 6 12 9 35 7 53 l-4 32 -1 -36 c-1 -19 -7 -40 -14 -47 -8 -8 -61
-12 -174 -12 -134 0 -165 3 -178 16 -13 13 -16 44 -16 180 l0 164 178 0 c193
0 201 -2 203 -54 2 -30 2 -30 6 -4 2 15 -1 36 -7 48 -10 19 -20 20 -189 20
-156 0 -180 2 -185 16 -14 37 10 44 164 44 159 0 180 -3 181 -29 0 -10 2 -12
6 -3 3 7 -1 19 -7 27 -19 23 -322 22 -344 -1z"/>
<path d="M244 273 c-20 -14 -32 -48 -24 -68 15 -40 33 -46 136 -43 l99 3 0 55
0 55 -100 3 c-55 1 -105 -1 -111 -5z m206 -53 l0 -50 -99 0 c-67 0 -102 4
-108 13 -19 24 -21 45 -7 66 14 19 25 21 115 21 l99 0 0 -50z"/>
<path d="M263 243 c-17 -6 -16 -28 0 -42 10 -8 17 -7 25 1 24 24 6 52 -25 41z
m22 -33 c-5 -8 -11 -8 -17 -2 -6 6 -7 16 -3 22 5 8 11 8 17 2 6 -6 7 -16 3
-22z"/>
</g>
</svg>
