<?xml version="1.0" standalone="no"?>
<!DOCTYPE svg PUBLIC "-//W3C//DTD SVG 20010904//EN"
 "http://www.w3.org/TR/2001/REC-SVG-20010904/DTD/svg10.dtd">
<svg version="1.0" xmlns="http://www.w3.org/2000/svg"
 width="42.256516pt" height="44.252890pt" viewBox="0 0 42.256516 44.252890"
 preserveAspectRatio="xMidYMid meet">
<metadata>
Created by potrace 1.12, written by Peter Selinger 2001-2015
</metadata>
<g transform="translate(-8.329863,49.752890) scale(0.100000,-0.100000)"
fill="#000000" stroke="none">
<path d="M187 457 c-59 -22 -106 -41 -104 -44 3 -2 51 14 108 35 l103 39 100
-39 c56 -21 105 -37 111 -35 5 2 -11 11 -35 19 -25 9 -74 27 -110 41 l-66 25
-107 -41z"/>
<path d="M180 346 c0 -52 -1 -55 -27 -58 l-28 -3 0 -115 0 -115 170 0 170 0 0
115 0 115 -27 3 c-27 3 -28 6 -28 58 l0 54 -115 0 -115 0 0 -54z m30 31 c0 -8
7 -14 15 -14 11 0 12 4 4 14 -9 10 -8 13 5 13 9 0 16 -5 16 -12 0 -9 3 -9 12
0 22 22 28 13 28 -38 l0 -50 -50 0 -50 0 0 50 c0 28 5 50 10 50 6 0 10 -6 10
-13z m110 4 c0 -5 7 -12 16 -15 14 -5 15 -4 4 9 -10 13 -9 15 9 15 12 0 19 -4
16 -10 -3 -5 -1 -10 4 -10 6 0 11 5 11 10 0 6 5 10 10 10 6 0 10 -22 10 -50
l0 -50 -50 0 -50 0 0 50 c0 28 5 50 10 50 6 0 10 -4 10 -9z m-164 -116 c8 -20
54 -20 54 0 0 8 5 15 10 15 13 0 13 -97 -1 -102 -5 -2 -28 -2 -50 0 l-39 4 0
49 c0 47 14 65 26 34z m44 5 c0 -5 -7 -10 -15 -10 -8 0 -15 5 -15 10 0 6 7 10
15 10 8 0 15 -4 15 -10z m99 -20 c12 0 21 6 21 15 0 8 5 15 10 15 13 0 13 -97
-1 -102 -5 -2 -28 -2 -50 0 -39 4 -39 4 -39 46 0 49 9 64 26 42 6 -9 21 -16
33 -16z m11 20 c0 -5 -7 -10 -15 -10 -8 0 -15 5 -15 10 0 6 7 10 15 10 8 0 15
-4 15 -10z m70 -5 c0 -9 9 -15 25 -15 16 0 25 6 25 16 0 9 6 14 13 12 6 -3 13
-25 15 -50 l3 -46 -38 -3 c-69 -7 -74 -3 -69 49 5 56 4 52 16 52 6 0 10 -7 10
-15z m40 5 c0 -5 -7 -10 -15 -10 -8 0 -15 5 -15 10 0 6 7 10 15 10 8 0 15 -4
15 -10z m-231 -130 c11 0 21 5 21 10 0 6 5 10 10 10 6 0 10 -22 10 -50 l0 -50
-50 0 -50 0 0 48 c0 54 9 71 26 48 6 -9 21 -16 33 -16z m110 0 c11 0 21 5 21
10 0 6 5 10 10 10 6 0 10 -23 10 -51 l0 -50 -47 3 c-48 3 -48 3 -51 42 -2 21
0 46 3 55 6 15 8 15 19 -1 7 -10 23 -18 35 -18z m11 20 c0 -5 -7 -10 -15 -10
-8 0 -15 5 -15 10 0 6 7 10 15 10 8 0 15 -4 15 -10z m98 -20 c11 0 23 8 26 17
12 30 27 -2 24 -48 l-3 -44 -50 0 c-49 0 -50 1 -52 30 0 17 1 41 4 54 5 22 7
22 18 8 7 -10 21 -17 33 -17z m12 20 c0 -5 -7 -10 -15 -10 -8 0 -15 5 -15 10
0 6 7 10 15 10 8 0 15 -4 15 -10z"/>
</g>
</svg>
